<?xml version="1.0" encoding="UTF-8" standalone="no"?>
<!-- Created with Inkscape (http://www.inkscape.org/) -->

<svg
   xmlns:dc="http://purl.org/dc/elements/1.1/"
   xmlns:cc="http://creativecommons.org/ns#"
   xmlns:rdf="http://www.w3.org/1999/02/22-rdf-syntax-ns#"
   xmlns:svg="http://www.w3.org/2000/svg"
   xmlns="http://www.w3.org/2000/svg"
   xmlns:sodipodi="http://sodipodi.sourceforge.net/DTD/sodipodi-0.dtd"
   xmlns:inkscape="http://www.inkscape.org/namespaces/inkscape"
   width="210mm"
   height="297mm"
   id="svg2"
   version="1.1"
   inkscape:version="0.47 r22583"
   sodipodi:docname="iPad.svg">
  <defs
     id="defs4">
    <inkscape:perspective
       sodipodi:type="inkscape:persp3d"
       inkscape:vp_x="0 : 526.18109 : 1"
       inkscape:vp_y="0 : 1000 : 0"
       inkscape:vp_z="744.09448 : 526.18109 : 1"
       inkscape:persp3d-origin="372.04724 : 350.78739 : 1"
       id="perspective10" />
  </defs>
  <sodipodi:namedview
     id="base"
     pagecolor="#ffffff"
     bordercolor="#666666"
     borderopacity="1.0"
     inkscape:pageopacity="0.0"
     inkscape:pageshadow="2"
     inkscape:zoom="1.4142136"
     inkscape:cx="131.22421"
     inkscape:cy="744.54792"
     inkscape:document-units="px"
     inkscape:current-layer="layer1"
     showgrid="false"
     showguides="true"
     inkscape:guide-bbox="true"
     inkscape:window-width="1920"
     inkscape:window-height="1152"
     inkscape:window-x="48"
     inkscape:window-y="0"
     inkscape:window-maximized="1" />
  <metadata
     id="metadata7">
    <rdf:RDF>
      <cc:Work
         rdf:about="">
        <dc:format>image/svg+xml</dc:format>
        <dc:type
           rdf:resource="http://purl.org/dc/dcmitype/StillImage" />
        <dc:title />
      </cc:Work>
    </rdf:RDF>
  </metadata>
  <g
     inkscape:label="Ebene 1"
     inkscape:groupmode="layer"
     id="layer1">
    <rect
       style="fill:none"
       id="rect2818"
       width="308.57144"
       height="320"
       x="137.14285"
       y="175.21933" />
    <rect
       style="fill:none"
       id="rect2820"
       width="245.71428"
       height="274.28571"
       x="157.14285"
       y="178.07646" />
    <rect
       style="fill:none"
       id="rect2822"
       width="80"
       height="68.571426"
       x="146.42139"
       y="6.7556105" />
    <rect
       style="fill:none"
       id="rect2824"
       width="146.66666"
       height="220"
       x="157.84996"
       y="26.755611" />
    <rect
       style="fill:none"
       id="rect2826"
       width="325.71426"
       height="457.14288"
       x="128.57143"
       y="118.07647"
       ry="104.28572"
       rx="162.85713" />
    <rect
       style="fill:none"
       id="rect2828"
       width="345.71426"
       height="485.71429"
       x="114.28571"
       y="160.93361"
       rx="131.42856"
       ry="104.28572" />
    <rect
       style="fill:none"
       id="rect2830"
       width="242.85715"
       height="382.85715"
       x="248.57143"
       y="166.6479" />
    <rect
       style="fill:none;stroke:#000000;stroke-opacity:1"
       id="rect2832"
       width="287.08835"
       height="443.41425"
       x="2.0567527"
       y="2.1504622"
       rx="18.022255"
       ry="18.022255" />
    <rect
       style="fill:none;stroke:#000000;stroke-opacity:1"
       id="rect3608"
       width="244.29536"
       height="396.7197"
       x="23.642523"
       y="26.701061"
       rx="0"
       ry="0" />
    <path
       sodipodi:type="arc"
       style="fill:none;stroke:#000000;stroke-opacity:1"
       id="path3616"
       sodipodi:cx="261.62952"
       sodipodi:cy="596.27832"
       sodipodi:rx="9.0552826"
       sodipodi:ry="8.0552826"
       d="m 270.6848,596.27832 a 9.0552826,8.0552826 0 1 1 -18.11057,0 9.0552826,8.0552826 0 1 1 18.11057,0 z"
       transform="matrix(0.98292599,0,0,0.98292599,-107.5119,-151.76741)" />
    <path
       style="fill:#808080;fill-opacity:1;stroke:#000000;stroke-opacity:1"
       d="m 90.27303,445.75621 c 30.07026,-0.14697 79.57026,-0.14701 110,-8e-5 30.42974,0.14693 5.8268,0.26718 -54.6732,0.26722 -60.5,4e-5 -85.39706,-0.12017 -55.3268,-0.26714 z"
       id="path3765" />
    <path
       style="fill:#808080"
       d="M 14.5488,443.51 C 9.9222963,441.91203 6.9625164,439.21153 4.7817057,434.59851 L 3.11028,431.06297 3.1189017,223.88069 C 3.1275124,16.966359 3.1293865,16.694293 4.5678923,13.516428 6.3437764,9.5932464 8.9397043,6.7876053 12.642406,4.7896115 l 2.828427,-1.5262314 130.107647,0 130.10764,0 2.92923,1.5666012 c 3.71179,1.9851302 7.84373,6.7794657 8.75299,10.1561947 0.45849,1.702728 0.6387,74.603407 0.52009,210.401794 l -0.18149,207.79632 -1.87883,2.88705 c -1.03335,1.58788 -2.87808,3.72786 -4.09939,4.75554 -5.04475,4.24487 2.39039,4.02683 -136.45536,4.00159 C 24.051711,444.8064 18.129349,444.7467 14.5488,443.51 l 0,0 z m 142.07302,-3.525 c 2.11085,-2.11086 2.74283,-3.29552 2.73482,-5.12653 -0.0307,-7.01097 -7.68467,-11.21784 -14.51377,-7.97722 -3.0457,1.44528 -4.64811,3.93944 -4.69459,7.30715 -0.073,5.28748 3.63608,8.46655 9.93281,8.51352 3.48273,0.026 4.02171,-0.1979 6.54073,-2.71692 l 0,0 z m 112.34679,-215.04365 0,-199.404107 -123.03658,0 -123.036576,0 0,199.404107 0,199.40411 123.036576,0 123.03658,0 0,-199.40411 z"
       id="path2825" />
  </g>
</svg>
