<?xml version="1.0" encoding="UTF-8" standalone="no"?>
<!-- Created with Inkscape (http://www.inkscape.org/) -->

<svg
   xmlns:dc="http://purl.org/dc/elements/1.1/"
   xmlns:cc="http://creativecommons.org/ns#"
   xmlns:rdf="http://www.w3.org/1999/02/22-rdf-syntax-ns#"
   xmlns:svg="http://www.w3.org/2000/svg"
   xmlns="http://www.w3.org/2000/svg"
   xmlns:sodipodi="http://sodipodi.sourceforge.net/DTD/sodipodi-0.dtd"
   xmlns:inkscape="http://www.inkscape.org/namespaces/inkscape"
   width="210mm"
   height="297mm"
   id="svg2"
   version="1.1"
   inkscape:version="0.47 r22583"
   sodipodi:docname="IPhone.svg">
  <defs
     id="defs4">
    <inkscape:perspective
       sodipodi:type="inkscape:persp3d"
       inkscape:vp_x="0 : 526.18109 : 1"
       inkscape:vp_y="0 : 1000 : 0"
       inkscape:vp_z="744.09448 : 526.18109 : 1"
       inkscape:persp3d-origin="372.04724 : 350.78739 : 1"
       id="perspective10" />
  </defs>
  <sodipodi:namedview
     id="base"
     pagecolor="#ffffff"
     bordercolor="#666666"
     borderopacity="1.0"
     inkscape:pageopacity="0.0"
     inkscape:pageshadow="2"
     inkscape:zoom="1"
     inkscape:cx="148.29983"
     inkscape:cy="772.65619"
     inkscape:document-units="px"
     inkscape:current-layer="layer1"
     showgrid="false"
     showguides="true"
     inkscape:guide-bbox="true"
     inkscape:window-width="1920"
     inkscape:window-height="1152"
     inkscape:window-x="406"
     inkscape:window-y="0"
     inkscape:window-maximized="0" />
  <metadata
     id="metadata7">
    <rdf:RDF>
      <cc:Work
         rdf:about="">
        <dc:format>image/svg+xml</dc:format>
        <dc:type
           rdf:resource="http://purl.org/dc/dcmitype/StillImage" />
        <dc:title></dc:title>
      </cc:Work>
    </rdf:RDF>
  </metadata>
  <g
     inkscape:label="Ebene 1"
     inkscape:groupmode="layer"
     id="layer1">
    <rect
       style="fill:none"
       id="rect2818"
       width="308.57144"
       height="320"
       x="137.14285"
       y="175.21933" />
    <rect
       style="fill:none"
       id="rect2820"
       width="245.71428"
       height="274.28571"
       x="157.14285"
       y="178.07646" />
    <rect
       style="fill:none"
       id="rect2822"
       width="80"
       height="68.571426"
       x="146.42139"
       y="6.7556105" />
    <rect
       style="fill:none"
       id="rect2824"
       width="146.66666"
       height="220"
       x="157.84996"
       y="26.755611" />
    <rect
       style="fill:none"
       id="rect2826"
       width="325.71426"
       height="457.14288"
       x="128.57143"
       y="118.07647"
       ry="104.28572"
       rx="162.85713" />
    <rect
       style="fill:none"
       id="rect2828"
       width="345.71426"
       height="485.71429"
       x="114.28571"
       y="160.93361"
       rx="131.42856"
       ry="104.28572" />
    <rect
       style="fill:none"
       id="rect2830"
       width="242.85715"
       height="382.85715"
       x="248.57143"
       y="166.6479" />
    <rect
       style="fill:none;stroke:#000000;stroke-opacity:1"
       id="rect2832"
       width="249.08836"
       height="441.41425"
       x="2.0567527"
       y="2.1504622"
       rx="34.285709"
       ry="34.285709" />
    <rect
       style="fill:none;stroke:#000000;stroke-opacity:1"
       id="rect3608"
       width="222.80145"
       height="343.23441"
       x="14.743029"
       y="51.115276"
       rx="0"
       ry="0" />
    <path
       sodipodi:type="arc"
       style="fill:none;stroke:#000000;stroke-opacity:1"
       id="path3616"
       sodipodi:cx="261.62952"
       sodipodi:cy="596.27832"
       sodipodi:rx="14.142136"
       sodipodi:ry="13.142136"
       d="m 275.77165,596.27832 a 14.142136,13.142136 0 1 1 -28.28427,0 14.142136,13.142136 0 1 1 28.28427,0 z"
       transform="matrix(0.98292599,0,0,0.98292599,-131.04743,-168.71716)" />
    <rect
       style="fill:none;stroke:#000000;stroke-opacity:1"
       id="rect3730"
       width="2"
       height="0.5"
       x="344"
       y="63.362183" />
    <path
       style="fill:#999999;fill-opacity:1;stroke:#000000;stroke-opacity:1"
       d="M 26.970002,440.95111 C 20.287601,438.87911 13.231293,433.73508 9.4278264,428.1629 2.6474081,418.22941 3.0985979,432.87981 3.1116993,223.07449 3.121427,67.293796 3.3655977,32.097183 4.4652173,27.968164 7.169666,17.813086 14.981362,9.1906071 24.807996,5.5139924 30.045703,3.554315 32.495301,3.5059929 126.59983,3.5059929 c 94.50361,0 96.53327,0.040517 101.85958,2.033347 10.29479,3.8517744 18.26939,13.1393441 20.57853,23.9666531 0.88021,4.127236 1.09672,53.17236 0.86743,196.499997 l -0.30554,191 -2.26912,4.92034 c -3.69291,8.00767 -8.57319,13.13052 -15.98535,16.77987 l -6.70217,3.29979 -96.52168,0.19034 c -81.443646,0.16061 -97.244924,-0.0339 -101.151508,-1.24522 l 0,0 z M 132.71733,429.59224 c 2.26462,-1.0284 4.84993,-2.91551 5.74512,-4.19358 4.14299,-5.91494 2.76427,-14.16863 -3.11597,-18.65371 -2.93566,-2.23914 -4.62305,-2.73896 -9.24665,-2.73896 -4.6236,0 -6.31099,0.49982 -9.24665,2.73896 -8.4351,6.43377 -7.08082,18.439 2.57461,22.82287 5.23975,2.37902 8.09298,2.38426 13.28954,0.0244 l 0,2e-5 z m 105.3825,-206.58625 0,-172.499997 -112,0 -112,0 0,172.499997 0,172.5 112,0 112,0 0,-172.5 z"
       id="path3742" />
  </g>
</svg>
